<mxfile host="app.diagrams.net" agent="Mozilla/5.0 (X11; Linux x86_64) AppleWebKit/537.36 (KHTML, like Gecko) Chrome/130.0.0.0 Safari/537.36" version="26.1.0">
  <diagram name="Page-1" id="ZEltVIU72ON1XJ2jR32P">
    <mxGraphModel dx="1364" dy="793" grid="1" gridSize="10" guides="1" tooltips="1" connect="1" arrows="1" fold="1" page="1" pageScale="1" pageWidth="850" pageHeight="1100" math="0" shadow="0">
      <root>
        <mxCell id="0" />
        <mxCell id="1" parent="0" />
        <mxCell id="CXO_VDhwM1B9tIewKVyP-7" style="edgeStyle=orthogonalEdgeStyle;rounded=0;orthogonalLoop=1;jettySize=auto;html=1;exitX=1;exitY=0.5;exitDx=0;exitDy=0;exitPerimeter=0;" edge="1" parent="1" source="CXO_VDhwM1B9tIewKVyP-1" target="CXO_VDhwM1B9tIewKVyP-2">
          <mxGeometry relative="1" as="geometry" />
        </mxCell>
        <mxCell id="CXO_VDhwM1B9tIewKVyP-1" value="Survey&lt;div&gt;Corpus&lt;/div&gt;" style="shape=cylinder3;whiteSpace=wrap;html=1;boundedLbl=1;backgroundOutline=1;size=15;" vertex="1" parent="1">
          <mxGeometry x="40" y="40" width="120" height="160" as="geometry" />
        </mxCell>
        <mxCell id="CXO_VDhwM1B9tIewKVyP-10" style="edgeStyle=orthogonalEdgeStyle;rounded=0;orthogonalLoop=1;jettySize=auto;html=1;entryX=0;entryY=0.5;entryDx=0;entryDy=0;" edge="1" parent="1" source="CXO_VDhwM1B9tIewKVyP-2" target="CXO_VDhwM1B9tIewKVyP-8">
          <mxGeometry relative="1" as="geometry" />
        </mxCell>
        <mxCell id="CXO_VDhwM1B9tIewKVyP-11" style="edgeStyle=orthogonalEdgeStyle;rounded=0;orthogonalLoop=1;jettySize=auto;html=1;exitX=0.5;exitY=1;exitDx=0;exitDy=0;entryX=0;entryY=0.5;entryDx=0;entryDy=0;" edge="1" parent="1" source="CXO_VDhwM1B9tIewKVyP-2" target="CXO_VDhwM1B9tIewKVyP-9">
          <mxGeometry relative="1" as="geometry" />
        </mxCell>
        <mxCell id="CXO_VDhwM1B9tIewKVyP-2" value="Generate Embeddings" style="rounded=1;whiteSpace=wrap;html=1;" vertex="1" parent="1">
          <mxGeometry x="240" y="75" width="200" height="90" as="geometry" />
        </mxCell>
        <mxCell id="CXO_VDhwM1B9tIewKVyP-8" value="Sentiment Analysis" style="rounded=1;whiteSpace=wrap;html=1;" vertex="1" parent="1">
          <mxGeometry x="520" y="75" width="200" height="90" as="geometry" />
        </mxCell>
        <mxCell id="CXO_VDhwM1B9tIewKVyP-9" value="Visual Analysis" style="rounded=1;whiteSpace=wrap;html=1;" vertex="1" parent="1">
          <mxGeometry x="520" y="200" width="200" height="90" as="geometry" />
        </mxCell>
      </root>
    </mxGraphModel>
  </diagram>
</mxfile>
